<mxfile host="app.diagrams.net" modified="2020-11-20T06:35:26.319Z" agent="5.0 (Windows NT 10.0; Win64; x64) AppleWebKit/537.36 (KHTML, like Gecko) Chrome/87.0.4280.66 Safari/537.36" etag="ZRXCWhkZNzxC9Rw2A4BM" version="13.10.0" type="github">
  <diagram id="C5RBs43oDa-KdzZeNtuy" name="Page-1">
    <mxGraphModel dx="1422" dy="762" grid="1" gridSize="10" guides="1" tooltips="1" connect="1" arrows="1" fold="1" page="1" pageScale="1" pageWidth="827" pageHeight="1169" math="0" shadow="0">
      <root>
        <mxCell id="WIyWlLk6GJQsqaUBKTNV-0" />
        <mxCell id="WIyWlLk6GJQsqaUBKTNV-1" parent="WIyWlLk6GJQsqaUBKTNV-0" />
        <mxCell id="NbpXNMF3deSl_Njex5Y6-0" value="服务所有&lt;br&gt;地图用户" style="ellipse;whiteSpace=wrap;html=1;" vertex="1" parent="WIyWlLk6GJQsqaUBKTNV-1">
          <mxGeometry x="340" y="330" width="110" height="40" as="geometry" />
        </mxCell>
        <mxCell id="NbpXNMF3deSl_Njex5Y6-7" style="rounded=0;orthogonalLoop=1;jettySize=auto;html=1;exitX=0.5;exitY=1;exitDx=0;exitDy=0;entryX=0.5;entryY=0;entryDx=0;entryDy=0;" edge="1" parent="WIyWlLk6GJQsqaUBKTNV-1" source="NbpXNMF3deSl_Njex5Y6-3" target="NbpXNMF3deSl_Njex5Y6-0">
          <mxGeometry relative="1" as="geometry" />
        </mxCell>
        <mxCell id="NbpXNMF3deSl_Njex5Y6-3" value="高德地图" style="rounded=1;whiteSpace=wrap;html=1;" vertex="1" parent="WIyWlLk6GJQsqaUBKTNV-1">
          <mxGeometry x="266" y="240" width="79" height="30" as="geometry" />
        </mxCell>
        <mxCell id="NbpXNMF3deSl_Njex5Y6-8" style="edgeStyle=none;rounded=0;orthogonalLoop=1;jettySize=auto;html=1;exitX=0.5;exitY=1;exitDx=0;exitDy=0;" edge="1" parent="WIyWlLk6GJQsqaUBKTNV-1" source="NbpXNMF3deSl_Njex5Y6-4" target="NbpXNMF3deSl_Njex5Y6-0">
          <mxGeometry relative="1" as="geometry" />
        </mxCell>
        <mxCell id="NbpXNMF3deSl_Njex5Y6-4" value="百度地图" style="rounded=1;whiteSpace=wrap;html=1;" vertex="1" parent="WIyWlLk6GJQsqaUBKTNV-1">
          <mxGeometry x="355" y="240" width="80" height="30" as="geometry" />
        </mxCell>
        <mxCell id="NbpXNMF3deSl_Njex5Y6-10" style="edgeStyle=none;rounded=0;orthogonalLoop=1;jettySize=auto;html=1;exitX=0.5;exitY=1;exitDx=0;exitDy=0;entryX=0.5;entryY=0;entryDx=0;entryDy=0;" edge="1" parent="WIyWlLk6GJQsqaUBKTNV-1" source="NbpXNMF3deSl_Njex5Y6-5" target="NbpXNMF3deSl_Njex5Y6-0">
          <mxGeometry relative="1" as="geometry" />
        </mxCell>
        <mxCell id="NbpXNMF3deSl_Njex5Y6-5" value="地图服务" style="rounded=1;whiteSpace=wrap;html=1;" vertex="1" parent="WIyWlLk6GJQsqaUBKTNV-1">
          <mxGeometry x="445" y="240" width="80" height="30" as="geometry" />
        </mxCell>
        <mxCell id="NbpXNMF3deSl_Njex5Y6-13" style="edgeStyle=none;rounded=0;orthogonalLoop=1;jettySize=auto;html=1;entryX=0.5;entryY=0;entryDx=0;entryDy=0;" edge="1" parent="WIyWlLk6GJQsqaUBKTNV-1" source="NbpXNMF3deSl_Njex5Y6-12" target="NbpXNMF3deSl_Njex5Y6-4">
          <mxGeometry relative="1" as="geometry" />
        </mxCell>
        <mxCell id="NbpXNMF3deSl_Njex5Y6-14" style="edgeStyle=none;rounded=0;orthogonalLoop=1;jettySize=auto;html=1;exitX=0.5;exitY=1;exitDx=0;exitDy=0;entryX=0.5;entryY=0;entryDx=0;entryDy=0;" edge="1" parent="WIyWlLk6GJQsqaUBKTNV-1" source="NbpXNMF3deSl_Njex5Y6-12" target="NbpXNMF3deSl_Njex5Y6-3">
          <mxGeometry relative="1" as="geometry" />
        </mxCell>
        <mxCell id="NbpXNMF3deSl_Njex5Y6-15" style="edgeStyle=none;rounded=0;orthogonalLoop=1;jettySize=auto;html=1;exitX=0.5;exitY=1;exitDx=0;exitDy=0;entryX=0.5;entryY=0;entryDx=0;entryDy=0;" edge="1" parent="WIyWlLk6GJQsqaUBKTNV-1" source="NbpXNMF3deSl_Njex5Y6-12" target="NbpXNMF3deSl_Njex5Y6-5">
          <mxGeometry relative="1" as="geometry" />
        </mxCell>
        <mxCell id="NbpXNMF3deSl_Njex5Y6-12" value="&lt;font color=&quot;#ffffff&quot;&gt;我们提供区域&lt;br&gt;路口实时信息&lt;/font&gt;" style="rounded=0;whiteSpace=wrap;html=1;strokeColor=#FF0000;fillColor=#FF0000;" vertex="1" parent="WIyWlLk6GJQsqaUBKTNV-1">
          <mxGeometry x="347.5" y="140" width="95" height="40" as="geometry" />
        </mxCell>
      </root>
    </mxGraphModel>
  </diagram>
</mxfile>
